<svg xmlns="http://www.w3.org/2000/svg" viewBox="0 0 395.14 82.7"><defs><style>.cls-1{fill:#fff;}</style></defs><g id="Calque_2" data-name="Calque 2"><g id="Calque_1-2" data-name="Calque 1"><path class="cls-1" d="M395.14,82.7H0V0H395.14ZM201.61,40.53V53.78h3.57V23.86a1.14,1.14,0,0,0-.19-.07,32.45,32.45,0,0,0-10.54-.34c-3.12.55-5.54,2.12-6.47,5.28a8.28,8.28,0,0,0,2.13,8.8,30,30,0,0,0,2.67,2.07c-2.6,4.66-5.23,9.39-7.93,14.22,1.2,0,2.26-.06,3.32,0a1.3,1.3,0,0,0,1.42-.86c2.1-4,4.25-8,6.4-12,.11-.19.34-.46.52-.46C198.18,40.51,199.84,40.53,201.61,40.53Zm13.75,4c0,2.35,0,4.64,0,6.94,0,.14.22.35.39.42a35.16,35.16,0,0,0,3.31,1.33,16.81,16.81,0,0,0,10.54.21A8,8,0,0,0,235.12,44a7.62,7.62,0,0,0-3.94-5c-1.87-1.12-3.89-2-5.86-2.93a19.9,19.9,0,0,1-4.69-2.75,3.65,3.65,0,0,1,.14-5.8,5.41,5.41,0,0,1,1.46-.83c2.77-1,5.54-.51,8.36,0v4.59h3.22v-.68c0-1.95,0-3.9,0-5.85a.66.66,0,0,0-.51-.74,21.6,21.6,0,0,0-6.76-1.14,14.94,14.94,0,0,0-6.31,1,7.3,7.3,0,0,0-2.12,12.31,13.43,13.43,0,0,0,2.31,1.67c1.57.82,3.21,1.52,4.82,2.24a18.26,18.26,0,0,1,5.06,2.88,3.77,3.77,0,0,1,1.32,2.79,4.71,4.71,0,0,1-4,4.88,13,13,0,0,1-8.38-.93.93.93,0,0,1-.66-1c0-1.36,0-2.72,0-4.11ZM261,43.42a1.31,1.31,0,0,0,.1-.31,16.11,16.11,0,0,0-.72-6.28,7.46,7.46,0,0,0-6-5.11,14,14,0,0,0-4.79-.1c-4.13.65-7,2.8-8.24,6.91a14.85,14.85,0,0,0,.1,8.9,9,9,0,0,0,7.09,6.43,15.24,15.24,0,0,0,7-.24,13,13,0,0,0,5-2.39c.15-.12.34-.42.28-.54-.36-.77-.79-1.51-1.21-2.28-.21.15-.33.25-.46.33-2.87,1.83-5.94,2.83-9.37,2.1s-5.53-3.43-5.34-7.42Zm78,0a16.33,16.33,0,0,0-.77-6.8,7.46,7.46,0,0,0-6-4.91,14.39,14.39,0,0,0-4.72-.1c-3.91.6-6.81,2.55-8.11,6.38a14.61,14.61,0,0,0,.08,9.87,8.85,8.85,0,0,0,6.81,6,15.4,15.4,0,0,0,8.13-.5,12.14,12.14,0,0,0,4.43-2.44l-1.35-2.47c-.21.15-.36.27-.52.37-3,1.89-6.25,2.89-9.83,1.92a6.57,6.57,0,0,1-4.76-7.29Zm-178.45.15h16.67c0,2.19-.4,4.17-2,5.69a7.91,7.91,0,0,1-6.83,1.9A13,13,0,0,1,162,48.58l-1.35,2.49c.24.19.43.37.64.52a15.1,15.1,0,0,0,11.44,2.5,9,9,0,0,0,7.44-6.44,15.07,15.07,0,0,0,.51-7.18c-.62-4.13-2.78-7-6.87-8.29a13.51,13.51,0,0,0-7-.2,7.26,7.26,0,0,0-5.25,4.24A15.2,15.2,0,0,0,160.54,43.57ZM108.71,51.1l.26.18.35.28a15.14,15.14,0,0,0,11.56,2.52A8.85,8.85,0,0,0,128.12,48a14.93,14.93,0,0,0,.16-9.57A9,9,0,0,0,122,32.22a13.62,13.62,0,0,0-7-.26,7.31,7.31,0,0,0-5.52,4.63,11.94,11.94,0,0,0-.89,4.49c0,.82,0,1.63,0,2.5h16.71c0,2.85-.77,5.26-3.39,6.69a8.86,8.86,0,0,1-6.25.76,13,13,0,0,1-5.57-2.45Zm159.37,2.56c.89,0,1.73,0,2.57,0,.58,0,.77-.13.77-.75,0-4.07,0-8.15,0-12.22a2.71,2.71,0,0,1,.09-.9c1-2.64,2.78-4.57,5.65-5,3.27-.49,5.18.81,5.78,3.68a14.93,14.93,0,0,1,.36,2.89c0,3.84,0,7.67,0,11.51v.77c1,0,1.88,0,2.79,0,.54,0,.69-.15.69-.69,0-3.9,0-7.8,0-11.7a31.48,31.48,0,0,0-.23-3.5,8,8,0,0,0-1.62-4.11,6.47,6.47,0,0,0-4.65-2.13,9.19,9.19,0,0,0-7.41,2.05A24.13,24.13,0,0,0,271,35.51c-.14-1.2-.28-2.34-.41-3.48h-5.77v2.81h2.9C268.33,41.09,267.88,47.32,268.08,53.66ZM94,35a1.14,1.14,0,0,1-.21-.07l-.5-.42a10.48,10.48,0,0,0-7.48-2.76,3.56,3.56,0,0,0-3.26,2c-1,2-.91,4.13-.94,6.32h3c0-.24,0-.5.07-.75a26.35,26.35,0,0,1,.34-2.69A2.08,2.08,0,0,1,87.5,34.8a8,8,0,0,1,5.69,2.87,1.74,1.74,0,0,1,.42,1.09c0,3.81,0,7.62,0,11.43,0,.21,0,.42,0,.7H85.38v2.89h17.43V50.84H97V35.06h5.76V32.14c-2.59,0-5.12,0-7.66,0a.71.71,0,0,0-.49.42C94.4,33.35,94.22,34.15,94,35ZM293.62,51.07c.07.09.09.13.12.16a1.57,1.57,0,0,0,.25.2,15.55,15.55,0,0,0,14,1.87,6.19,6.19,0,0,0,4.32-6.16c0-2.4-1.43-3.74-3.36-4.73a25.46,25.46,0,0,0-5.41-1.59A34.57,34.57,0,0,1,299,39.36,1.8,1.8,0,0,1,298,37a3.05,3.05,0,0,1,2.25-2.13,10.16,10.16,0,0,1,7.18.31c1,.4,1.95.91,2.95,1.38l1.43-2.82c-1.14-.49-2.16-1-3.24-1.38a15,15,0,0,0-10.13-.08,5.62,5.62,0,0,0-3.93,6.34,4.6,4.6,0,0,0,2.77,3.52,19.78,19.78,0,0,0,5.37,1.7,15.29,15.29,0,0,1,4.95,1.69,2.7,2.7,0,0,1,.47,4.29,4.8,4.8,0,0,1-1.84,1,10.58,10.58,0,0,1-7.31-.46c-1.26-.52-2.42-1.28-3.66-1.94ZM155.78,32.14c-1.22,0-2.3,0-3.38,0a.81.81,0,0,0-.9.6q-3.34,8.16-6.74,16.3c-.08.21-.3.36-.46.53a2.24,2.24,0,0,1-.4-.53c-.72-1.8-1.41-3.62-2.12-5.43-1.42-3.65-2.83-7.3-4.27-10.94-.08-.2-.3-.48-.46-.49-1.14,0-2.28,0-3.48,0,.06.21.09.35.14.49q4.38,10.36,8.75,20.73a.64.64,0,0,0,.73.46c.86,0,1.73,0,2.6,0a.84.84,0,0,0,1-.62q4.2-9.81,8.43-19.61ZM37.23,39.76,54.38,29.6l-1.66-2.72-.77.45L33,38.9c-1,.6-1,1.52,0,2.09L52.2,52l.57.3,1.66-2.61ZM345.48,52.32c.16-.08.28-.12.39-.19l19.66-11.29a1.08,1.08,0,0,0-.06-1.82L348.94,28.93l-3.4-2.06-1.67,2.73L361,39.76l-17.2,10C344.4,50.63,344.94,51.46,345.48,52.32ZM62.8,59.87,78.61,24.21,75.84,23C70.56,34.89,65.3,46.73,60,58.63Z"/><path d="M201.61,40.53c-1.77,0-3.43,0-5.1,0-.18,0-.41.27-.52.46-2.15,4-4.3,8-6.4,12a1.3,1.3,0,0,1-1.42.86c-1.06-.07-2.12,0-3.32,0,2.7-4.83,5.33-9.56,7.93-14.22a30,30,0,0,1-2.67-2.07,8.28,8.28,0,0,1-2.13-8.8c.93-3.16,3.35-4.73,6.47-5.28a32.45,32.45,0,0,1,10.54.34,1.14,1.14,0,0,1,.19.07V53.78h-3.57Zm0-2.81V27.23c0-.11,0-.25,0-.32s-.29-.39-.44-.39c-1.65-.07-3.3-.18-4.93-.1a5,5,0,0,0-3.49,1.68,5.71,5.71,0,0,0,2.84,9.23C197.51,37.88,199.51,37.67,201.59,37.72Z"/><path d="M215.36,44.53h3.26c0,1.39,0,2.75,0,4.11a.93.93,0,0,0,.66,1,13,13,0,0,0,8.38.93,4.71,4.71,0,0,0,4-4.88,3.77,3.77,0,0,0-1.32-2.79A18.26,18.26,0,0,0,225.25,40c-1.61-.72-3.25-1.42-4.82-2.24a13.43,13.43,0,0,1-2.31-1.67,7.3,7.3,0,0,1,2.12-12.31,14.94,14.94,0,0,1,6.31-1A21.6,21.6,0,0,1,233.31,24a.66.66,0,0,1,.51.74c0,1.95,0,3.9,0,5.85v.68h-3.22V26.65c-2.82-.51-5.59-1-8.36,0a5.41,5.41,0,0,0-1.46.83,3.65,3.65,0,0,0-.14,5.8A19.9,19.9,0,0,0,225.32,36c2,.94,4,1.81,5.86,2.93a7.62,7.62,0,0,1,3.94,5,8,8,0,0,1-5.51,9.45,16.81,16.81,0,0,1-10.54-.21,35.16,35.16,0,0,1-3.31-1.33c-.17-.07-.38-.28-.39-.42C215.35,49.17,215.36,46.88,215.36,44.53Z"/><path d="M261,43.42H244.47c-.19,4,1.87,6.67,5.34,7.42s6.5-.27,9.37-2.1c.13-.08.25-.18.46-.33.42.77.85,1.51,1.21,2.28.06.12-.13.42-.28.54a13,13,0,0,1-5,2.39,15.24,15.24,0,0,1-7,.24,9,9,0,0,1-7.09-6.43,14.85,14.85,0,0,1-.1-8.9c1.2-4.11,4.11-6.26,8.24-6.91a14,14,0,0,1,4.79.1,7.46,7.46,0,0,1,6,5.11,16.11,16.11,0,0,1,.72,6.28A1.31,1.31,0,0,1,261,43.42ZM244.6,40.28h13.3c0-.32-.07-.6-.11-.87a5.5,5.5,0,0,0-4.46-4.88,11.38,11.38,0,0,0-3-.06A5.9,5.9,0,0,0,244.6,40.28Z"/><path d="M339,43.42H322.41a6.57,6.57,0,0,0,4.76,7.29c3.58,1,6.8,0,9.83-1.92.16-.1.31-.22.52-.37l1.35,2.47a12.14,12.14,0,0,1-4.43,2.44,15.4,15.4,0,0,1-8.13.5,8.85,8.85,0,0,1-6.81-6,14.61,14.61,0,0,1-.08-9.87c1.3-3.83,4.2-5.78,8.11-6.38a14.39,14.39,0,0,1,4.72.1,7.46,7.46,0,0,1,6,4.91A16.33,16.33,0,0,1,339,43.42Zm-3.24-3.12a5.79,5.79,0,0,0-4.09-5.68,8.84,8.84,0,0,0-5.91.51,5.69,5.69,0,0,0-3.23,5.17Z"/><path d="M160.54,43.57a15.2,15.2,0,0,1,1-7.35A7.26,7.26,0,0,1,166.81,32a13.51,13.51,0,0,1,7,.2c4.09,1.25,6.25,4.16,6.87,8.29a15.07,15.07,0,0,1-.51,7.18,9,9,0,0,1-7.44,6.44,15.1,15.1,0,0,1-11.44-2.5c-.21-.15-.4-.33-.64-.52L162,48.58a13,13,0,0,0,6.36,2.58,7.91,7.91,0,0,0,6.83-1.9c1.62-1.52,2-3.5,2-5.69Zm16.53-3.12a6.29,6.29,0,0,0-1.6-3.91c-2-2.17-6.62-2.72-9.1-1.07a6.06,6.06,0,0,0-2.61,5Z"/><path d="M108.71,51.1l1.37-2.52A13,13,0,0,0,115.65,51a8.86,8.86,0,0,0,6.25-.76c2.62-1.43,3.38-3.84,3.39-6.69H108.58c0-.87,0-1.68,0-2.5a11.94,11.94,0,0,1,.89-4.49A7.31,7.31,0,0,1,115,32a13.62,13.62,0,0,1,7,.26,9,9,0,0,1,6.28,6.21,14.93,14.93,0,0,1-.16,9.57,8.85,8.85,0,0,1-7.24,6.08,15.14,15.14,0,0,1-11.56-2.52l-.35-.28Zm16.37-10.65a5.71,5.71,0,0,0-3.37-5.22,9.15,9.15,0,0,0-5.49-.51,5.62,5.62,0,0,0-4.31,5.73Z"/><path d="M268.08,53.66c-.2-6.34.25-12.57-.33-18.82h-2.9V32h5.77c.13,1.14.27,2.28.41,3.48a24.13,24.13,0,0,1,1.82-1.92,9.19,9.19,0,0,1,7.41-2.05,6.47,6.47,0,0,1,4.65,2.13,8,8,0,0,1,1.62,4.11,31.48,31.48,0,0,1,.23,3.5c0,3.9,0,7.8,0,11.7,0,.54-.15.71-.69.69-.91,0-1.81,0-2.79,0v-.77c0-3.84,0-7.67,0-11.51a14.93,14.93,0,0,0-.36-2.89c-.6-2.87-2.51-4.17-5.78-3.68-2.87.42-4.64,2.35-5.65,5a2.71,2.71,0,0,0-.09.9c0,4.07,0,8.15,0,12.22,0,.62-.19.78-.77.75C269.81,53.62,269,53.66,268.08,53.66Z"/><path d="M94,35c.21-.83.39-1.63.63-2.41a.71.71,0,0,1,.49-.42c2.54,0,5.07,0,7.66,0v2.92H97V50.84h5.78v2.94H85.38V50.89h8.21c0-.28,0-.49,0-.7,0-3.81,0-7.62,0-11.43a1.74,1.74,0,0,0-.42-1.09A8,8,0,0,0,87.5,34.8a2.08,2.08,0,0,0-2.45,1.81,26.35,26.35,0,0,0-.34,2.69c0,.25,0,.51-.07.75h-3c0-2.19,0-4.33.94-6.32a3.56,3.56,0,0,1,3.26-2,10.48,10.48,0,0,1,7.48,2.76l.5.42A1.14,1.14,0,0,0,94,35Z"/><path d="M293.62,51.07l1.62-2.63c1.24.66,2.4,1.42,3.66,1.94a10.58,10.58,0,0,0,7.31.46,4.8,4.8,0,0,0,1.84-1,2.7,2.7,0,0,0-.47-4.29,15.29,15.29,0,0,0-4.95-1.69,19.78,19.78,0,0,1-5.37-1.7,4.6,4.6,0,0,1-2.77-3.52,5.62,5.62,0,0,1,3.93-6.34,15,15,0,0,1,10.13.08c1.08.36,2.1.89,3.24,1.38l-1.43,2.82c-1-.47-2-1-2.95-1.38a10.16,10.16,0,0,0-7.18-.31A3.05,3.05,0,0,0,298,37a1.8,1.8,0,0,0,1,2.38,34.57,34.57,0,0,0,4.56,1.46A25.46,25.46,0,0,1,309,42.41c1.93,1,3.37,2.33,3.36,4.73A6.19,6.19,0,0,1,308,53.3a15.55,15.55,0,0,1-14-1.87,1.57,1.57,0,0,1-.25-.2S293.69,51.16,293.62,51.07Z"/><path d="M155.78,32.14l-.61,1.46q-4.21,9.81-8.43,19.61a.84.84,0,0,1-1,.62c-.87,0-1.74,0-2.6,0a.64.64,0,0,1-.73-.46Q138.1,43,133.71,32.63c-.05-.14-.08-.28-.14-.49,1.2,0,2.34,0,3.48,0,.16,0,.38.29.46.49,1.44,3.64,2.85,7.29,4.27,10.94.71,1.81,1.4,3.63,2.12,5.43a2.24,2.24,0,0,0,.4.53c.16-.17.38-.32.46-.53q3.39-8.15,6.74-16.3a.81.81,0,0,1,.9-.6C153.48,32.16,154.56,32.14,155.78,32.14Z"/><path d="M37.23,39.76l17.2,10-1.66,2.61L52.2,52,33,41c-1-.57-1-1.49,0-2.09L52,27.33l.77-.45,1.66,2.72Z"/><path d="M345.48,52.32c-.54-.86-1.08-1.69-1.65-2.6l17.2-10L343.87,29.6l1.67-2.73,3.4,2.06L365.47,39a1.08,1.08,0,0,1,.06,1.82L345.87,52.13C345.76,52.2,345.64,52.24,345.48,52.32Z"/><path d="M62.8,59.87,60,58.63C65.3,46.73,70.56,34.89,75.84,23l2.77,1.22Z"/><path class="cls-1" d="M201.59,37.72c-2.08,0-4.08.16-6-.39a5.71,5.71,0,0,1-2.84-9.23,5,5,0,0,1,3.49-1.68c1.63-.08,3.28,0,4.93.1.15,0,.31.24.44.39s0,.21,0,.32Z"/><path class="cls-1" d="M244.6,40.28a5.9,5.9,0,0,1,5.7-5.81,11.38,11.38,0,0,1,3,.06,5.5,5.5,0,0,1,4.46,4.88c0,.27.07.55.11.87Z"/><path class="cls-1" d="M335.75,40.3H322.52a5.69,5.69,0,0,1,3.23-5.17,8.84,8.84,0,0,1,5.91-.51A5.79,5.79,0,0,1,335.75,40.3Z"/><path class="cls-1" d="M177.07,40.45H163.76a6.06,6.06,0,0,1,2.61-5c2.48-1.65,7.06-1.1,9.1,1.07A6.29,6.29,0,0,1,177.07,40.45Z"/><path class="cls-1" d="M125.08,40.45H111.91a5.62,5.62,0,0,1,4.31-5.73,9.15,9.15,0,0,1,5.49.51A5.71,5.71,0,0,1,125.08,40.45Z"/></g></g></svg>